<svg xmlns="http://www.w3.org/2000/svg" width="119.361" height="27.309" viewBox="0 0 119.361 27.309"><g transform="translate(-6.727 -6.784)"><g transform="translate(6.727 6.784)"><g transform="translate(0 0)"><path d="M28.17,23.571c0,5.939-4.3,10.522-9.526,10.522a7.484,7.484,0,0,1-5.938-2.431v1.873H6.727V6.784h5.979v8.7a7.487,7.487,0,0,1,5.938-2.431C23.865,13.049,28.17,17.632,28.17,23.571Zm-5.979,0a4.551,4.551,0,0,0-4.743-4.862,4.55,4.55,0,0,0-4.742,4.862,4.551,4.551,0,0,0,4.742,4.863A4.551,4.551,0,0,0,22.191,23.571Z" transform="translate(-6.727 -6.784)" fill="#161558"/><path d="M224.673,21.3V33.535h-5.979V22.176a3.287,3.287,0,0,0-3.467-3.627c-2.192,0-3.706,1.276-3.706,4.105V33.535h-5.979V6.784h5.979v8.7a6.815,6.815,0,0,1,5.7-2.431C221.245,13.049,224.673,15.918,224.673,21.3Z" transform="translate(-181.511 -6.784)" fill="#161558"/><path d="M769.069,73.121c0,4.583-3.986,6.537-8.291,6.537-3.985,0-7.015-1.515-8.569-4.743l5.182-2.949a3.274,3.274,0,0,0,3.388,2.351c1.435,0,2.153-.439,2.153-1.235,0-2.192-9.805-1.037-9.805-7.932,0-4.344,3.668-6.536,7.813-6.536a8.718,8.718,0,0,1,7.772,4.264l-5.1,2.75a2.893,2.893,0,0,0-2.67-1.754c-1.036,0-1.674.4-1.674,1.116C759.264,67.263,769.069,65.748,769.069,73.121Z" transform="translate(-662.101 -52.349)" fill="#161558"/><path d="M916.779,34.918v7.055c0,1.713,1.474,1.873,4.105,1.713v5.421c-7.812.8-10.084-1.554-10.084-7.134V24.5h5.979v4.682h4.105v5.739Z" transform="translate(-801.523 -22.356)" fill="#161558"/></g><path d="M393.488,58.613a10.516,10.516,0,0,0-.744,21.008V73.78a4.585,4.585,0,1,1,1.488,0v5.851a10.648,10.648,0,0,0,4.524-1.35V73.553l5.253-5.253A10.433,10.433,0,0,0,393.488,58.613Z" transform="translate(-337.454 -52.348)" fill="#161558"/><path d="M581.729,58.613a10.434,10.434,0,0,0-10.521,9.68l5.26,5.26v4.732a10.649,10.649,0,0,0,4.517,1.346V73.78a4.585,4.585,0,1,1,1.488,0v5.841a10.516,10.516,0,0,0-.744-21.008Z" transform="translate(-502.978 -52.348)" fill="#161558"/><rect width="4.26" height="4.26" transform="translate(65.266 21.763)" fill="#161558"/></g></g></svg>